<?xml version="1.0" encoding="UTF-8" standalone="no"?>
<!-- Created with Inkscape (http://www.inkscape.org/) -->

<svg
   version="1.1"
   id="svg1"
   width="896"
   height="1200"
   viewBox="0 0 896 1200"
   sodipodi:docname="archie-os-minimal-svg-ready.svg"
   inkscape:version="1.4.3 (0d15f75, 2025-12-25)"
   xmlns:inkscape="http://www.inkscape.org/namespaces/inkscape"
   xmlns:sodipodi="http://sodipodi.sourceforge.net/DTD/sodipodi-0.dtd"
   xmlns="http://www.w3.org/2000/svg"
   xmlns:svg="http://www.w3.org/2000/svg">
  <defs
     id="defs1" />
  <sodipodi:namedview
     id="namedview1"
     pagecolor="#ffffff"
     bordercolor="#cccccc"
     borderopacity="1"
     inkscape:showpageshadow="0"
     inkscape:pageopacity="1"
     inkscape:pagecheckerboard="0"
     inkscape:deskcolor="#d1d1d1"
     showgrid="false"
     inkscape:zoom="0.6725"
     inkscape:cx="447.58364"
     inkscape:cy="600"
     inkscape:window-width="1920"
     inkscape:window-height="1009"
     inkscape:window-x="-8"
     inkscape:window-y="-8"
     inkscape:window-maximized="1"
     inkscape:current-layer="g1" />
  <g
     inkscape:groupmode="layer"
     inkscape:label="Image"
     id="g1">
    <path
       style="fill:#000000"
       d="m 137.95056,1042.7026 c -14.28481,-4.0553 -22.89015,-16.4085 -21.70606,-31.1598 0.60138,-7.4919 3.29904,-12.99425 8.81307,-17.97585 10.78192,-9.74081 29.35438,-12.74455 46.93583,-7.59096 5.06766,1.48547 5.00858,1.54148 4.98464,-4.72599 -0.0297,-7.78011 -2.69786,-13.37443 -8.07642,-16.93386 -3.53701,-2.34074 -5.53383,-2.87311 -11.8285,-3.15364 -8.68311,-0.38697 -14.99323,1.51705 -24.10249,7.27269 l -5.47063,3.4566 -3.20148,-6.1959 c -1.76081,-3.40774 -3.22331,-6.48648 -3.25,-6.84164 -0.095,-1.26378 9.61388,-6.8172 16.47746,-9.42505 10.11621,-3.84371 25.49328,-4.53916 35.09811,-1.58735 9.8086,3.01443 16.03364,8.08316 20.37591,16.59104 l 3.5,6.85761 0.27079,23.60475 c 0.14894,12.98265 0.49901,24.63315 0.77793,25.89015 0.27893,1.2569 1.61957,2.7083 2.97921,3.2252 2.35863,0.8968 2.47207,1.3254 2.47207,9.3396 v 8.3998 l -3.125,0.625 c -11.52387,2.3048 -18.875,-1.7166 -18.875,-10.3253 0,-1.6774 -0.27441,-3.0497 -0.60979,-3.0497 -0.33539,0 -3.03689,2.2182 -6.00334,4.9294 -3.25032,2.9706 -7.6771,5.7906 -11.14021,7.0966 -7.06865,2.6658 -19.02107,3.4579 -25.2961,1.6766 z m 27.42835,-16.729 c 2.6834,-1.3513 6.41247,-4.2485 8.28684,-6.4383 3.33691,-3.8984 3.40195,-4.1484 3.12109,-11.996 L 176.5,999.52464 170,997.70953 c -9.1323,-2.55017 -20.98351,-1.97083 -26.82317,1.31124 -11.30839,6.35563 -11.12108,21.09323 0.35274,27.75353 5.33851,3.0989 14.79348,2.7524 21.84934,-0.8007 z m 141.72942,16.9448 c -7.94012,-1.5594 -16.94864,-6.5416 -22.95547,-12.6957 -25.62248,-26.2508 -14.4874,-73.93505 19.30724,-82.68036 18.11209,-4.68701 37.12985,0.85832 47.44095,13.83315 2.79568,3.5179 4.74552,7.47484 3.94026,7.99621 -0.18772,0.12154 -4.16631,1.65589 -8.84131,3.40966 l -8.5,3.18869 -3.36463,-4.02318 c -4.94305,-5.91054 -10.27642,-8.37289 -18.13537,-8.37289 -10.71431,0 -17.49878,4.76733 -22.66455,15.92602 -2.33735,5.04895 -2.78174,7.34732 -2.80358,14.5 -0.0323,10.5824 2.11903,17.1858 7.64388,23.4623 9.95583,11.3104 23.86941,12.3894 33.86296,2.6259 2.58296,-2.5235 4.87017,-5.1559 5.08267,-5.8498 0.28546,-0.9321 2.80157,-0.4517 9.6325,1.8393 5.08537,1.7055 9.24612,3.4336 9.24612,3.8402 0,1.7497 -6.53624,10.3875 -10.34843,13.6757 -9.98817,8.6154 -24.40069,12.1022 -38.54324,9.3248 z m 231,0 c -12.51833,-2.4585 -25.16139,-12.1376 -31.02369,-23.7507 -7.96735,-15.7833 -8.17148,-31.97916 -0.60433,-47.94803 7.73108,-16.31483 22.38022,-25.17786 41.66435,-25.2078 25.29032,-0.0393 43.05614,17.98256 44.5955,45.23813 l 0.55067,9.75 H 557.64541 522 l 0.01,2.75 c 0.0132,3.7149 4.01574,12.0705 7.90264,16.4975 10.23335,11.6551 29.91148,10.9609 38.99556,-1.3757 l 3.40797,-4.6282 7.59203,2.5201 c 4.17562,1.386 7.73771,2.6394 7.91577,2.7852 0.70923,0.5811 -2.84382,6.202 -6.65232,10.524 -9.37026,10.6336 -27.21751,15.9574 -43.06309,12.8455 z M 573,985.03751 c 0,-3.96757 -4.14867,-12.88379 -7.6927,-16.53296 -4.93067,-5.07695 -10.52253,-7.45575 -17.58942,-7.48259 -7.10077,-0.027 -12.03487,1.93389 -17.05261,6.77687 -4.39375,4.24072 -7.21302,9.2332 -8.53397,15.11233 L 521.21259,987 H 547.1063 C 572.16835,987 573,986.93697 573,985.03751 Z m 65.28604,56.55749 c -15.5717,-5.0357 -27.89708,-20.6111 -33.31116,-42.095 -3.08125,-12.22686 -3.1015,-31.30882 -0.0456,-43 7.53188,-28.81553 25.12176,-44.62235 48.1711,-43.28805 19.64344,1.13714 35.26941,16.85476 42.04148,42.28805 3.08897,11.60096 3.11034,32.53764 0.0458,44.8627 -4.57272,18.3907 -14.85456,32.7438 -27.87257,38.9091 -5.90123,2.7948 -8.02185,3.2584 -15.81505,3.4568 -5.49336,0.1399 -10.64187,-0.3018 -13.21396,-1.1336 z m 20.62743,-11.1619 c 9.77561,-2.9031 18.75611,-13.5464 23.71425,-28.1053 3.55867,-10.4495 4.49169,-30.19865 1.96354,-41.56222 -4.6976,-21.11478 -17.54601,-35.46845 -32.7428,-36.57879 -15.65757,-1.14401 -28.30968,10.35362 -35.00758,31.81321 -2.03693,6.52617 -2.33157,9.44765 -2.26916,22.5 0.0642,13.41914 0.35031,15.84312 2.71501,23 7.79282,23.5853 23.31192,34.372 41.62674,28.9331 z m 75.19886,11.0358 c -7.30014,-2.0303 -15.77154,-6.6788 -21.69929,-11.9071 l -4.91304,-4.3333 2.77098,-5.6792 2.77097,-5.6791 5.95965,5.3931 c 7.32573,6.6294 14.50259,10.2435 23.42802,11.7978 23.42508,4.0793 38.11786,-9.147 32.52637,-29.28 -2.40602,-8.66331 -7.41937,-11.83654 -31.11312,-19.69333 -23.48702,-7.78823 -29.601,-12.79647 -31.84212,-26.08333 -4.01515,-23.80448 9.96061,-41.39807 33.97282,-42.76719 13.96594,-0.7963 25.49453,2.82492 34.94803,10.97743 l 3.14789,2.71467 -2.55159,5.03533 C 780.11452,934.7341 778.69093,937 778.35435,937 c -0.33657,0 -2.41248,-1.62668 -4.61314,-3.61483 -2.20065,-1.98816 -6.53019,-4.80066 -9.6212,-6.25 -4.83811,-2.26855 -6.94172,-2.63479 -15.12001,-2.63241 -7.81031,0.002 -10.21145,0.38516 -13.5,2.15269 -7.95771,4.2771 -11.5,10.51379 -11.5,20.24733 0,13.69209 4.13783,17.27038 28.99722,25.07605 21.43883,6.73164 27.77144,10.76114 32.68053,20.79495 2.38897,4.88287 2.75895,6.84697 2.76564,14.68162 0.005,6.1155 -0.57394,10.7352 -1.78832,14.2648 -2.52479,7.3384 -9.09623,14.2948 -16.85459,17.8419 -5.66419,2.5897 -7.51236,2.9071 -18.30048,3.1429 -8.31754,0.1818 -13.65332,-0.1975 -17.38767,-1.2361 z M 217,994.5 V 947 h 8.96379 8.96379 l 0.28621,9.75 0.28621,9.75 2.71178,-4.61285 c 5.21537,-8.87156 14.23146,-14.75429 23.96583,-15.63697 L 268,945.72222 v 9.49234 9.49234 l -7.08637,1.17029 c -8.34779,1.37861 -13.25592,3.70065 -17.51251,8.28518 C 236.69547,981.38466 237,979.57397 237,1012.2225 V 1042 h -10 -10 z m 151.66667,46.8333 C 368.3,1040.9667 368,1011.4917 368,975.83333 V 911 h 10 10 v 26.17814 26.17814 l 2.75,-3.68019 c 3.81556,-5.10617 11.68713,-10.45659 18.14634,-12.33433 6.85349,-1.99237 19.12176,-1.4327 24.10366,1.09958 5.65397,2.87388 10.85202,8.57598 13.23456,14.51789 2.12953,5.31091 2.23573,7.06532 2.55991,42.29077 l 0.33821,36.75 h -9.49191 -9.49192 l -0.32442,-31.75 C 429.50194,978.68956 429.48507,978.47016 427,973.50145 423.65613,966.81564 419.3036,964 412.31228,964 c -8.86721,0 -17.34944,6.00089 -22.20626,15.71016 C 388.10966,983.7011 388,985.4324 388,1012.9602 V 1042 h -9.33333 c -5.13334,0 -9.63334,-0.3 -10,-0.6667 z M 468,994.5 v -47.57242 l 9.75,0.28621 9.75,0.28621 v 47 47 l -9.75,0.2862 -9.75,0.2862 z m 0,-73 V 911 h 10 10 v 10.5 10.5 h -10 -10 z m 149.97811,-50.56959 c -30.30768,-2.51366 -54.082,-9.34702 -91.97811,-26.4369 -36.6747,-16.53907 -45.34489,-19.75031 -62,-22.96339 -9.67996,-1.86744 -28.71163,-2.15516 -37,-0.55935 -21.39123,4.11856 -35.28578,10.77058 -55.68049,26.65704 -4.49927,3.5047 -8.32747,6.37219 -8.50712,6.37219 -0.97511,0 1.4287,-27.36889 3.1424,-35.77814 5.3692,-26.34714 14.94102,-44.94718 32.4061,-62.97186 4.39663,-4.5375 7.60895,-8.25 7.13848,-8.25 -0.47047,0 -5.99565,1.60464 -12.27818,3.56587 -6.28253,1.96123 -11.61769,3.37096 -11.85592,3.13273 -0.23823,-0.23823 1.45961,-2.85537 3.77297,-5.81587 27.44895,-35.1275 60.93452,-54.9796 104.36176,-61.87141 29.6046,-4.69819 47.68119,-3.78723 92.5,4.6615 18.62232,3.51046 45.47672,5.71184 41.93159,3.43732 -2.69673,-1.7302 -30.68315,-12.78592 -47.95955,-18.9459 -21.48911,-7.66203 -45.18595,-14.56402 -67.1101,-19.54661 l -2.63805,-0.59954 -0.48233,-24.75905 C 505.40388,612.92538 504.73854,602.6509 503.52308,596 495.85683,554.0511 479.75364,524.40669 459.3956,514.7656 453.39214,511.9225 451.46203,511.5 444.47723,511.5 c -7.04162,0 -8.83525,0.40008 -14.6663,3.27146 -28.0655,13.82022 -48.45114,68.47189 -46.56962,124.84803 l 0.50461,15.11948 -15.12296,3.74825 c -65.7319,16.29176 -132.06702,44.96911 -211.64143,91.49476 -9.4865,5.54658 -17.41945,9.91343 -17.62877,9.70412 -0.20932,-0.20932 2.14834,-4.83683 5.23924,-10.28334 71.7181,-126.37553 150.16033,-277.53751 200.87353,-387.09301 l 9.80895,-21.19024 10.11276,5.18012 c 5.56202,2.84906 10.56276,5.37126 11.11276,5.60488 0.55,0.23363 -3.13424,-3.94535 -8.1872,-9.28662 l -9.1872,-9.7114 3.03267,-6.70325 c 23.37763,-51.67273 64.57685,-145.84758 77.87378,-178.00706 2.34317,-5.6671 4.56721,-9.9421 4.9423,-9.5 0.3751,0.4421 9.14267,20.60382 19.4835,44.80382 44.54608,104.24843 88.03674,199.68376 120.2004,263.76614 13.42057,26.73895 13.44104,26.77181 20.13799,32.33459 4.12851,3.42932 11.69771,8.02986 19.70376,11.97587 14.43353,7.11398 25.00617,10.24207 53.88233,15.94194 31.93278,6.30323 52.98141,12.71876 72.11767,21.98118 49.36026,23.89157 78.50767,61.38494 90.17882,116.00028 2.60391,12.18506 2.77683,14.50451 2.75836,37 -0.0183,22.26797 -0.2157,24.92057 -2.73543,36.75594 -10.77752,50.62274 -37.42752,89.74001 -80.20175,117.72135 -10.51697,6.87982 -33.5817,18.02666 -45.5,21.98947 -32.45784,10.79217 -64.10097,14.69405 -97.02189,11.96365 z M 642.5,857.98256 c 19.91994,-1.92394 36.5027,-6.50003 54.25926,-14.9731 33.40907,-15.94214 58.07415,-40.20824 73.70166,-72.50946 5.60558,-11.58643 9.32451,-20.68364 7.76718,-19 -0.50874,0.55 -3.70411,5.10665 -7.10083,10.1259 -16.21539,23.96109 -43.37424,44.11327 -71.85737,53.31899 -17.26532,5.58014 -24.46963,6.51697 -50.2699,6.53693 -32.8736,0.0254 -36.91497,-0.86218 -92.80194,-20.38226 -34.0877,-11.90608 -47.24677,-14.5802 -71.69806,-14.57011 -23.54689,0.01 -38.03738,3.30217 -59,13.40564 -9.42828,4.5442 -25.00698,13.99692 -23.14461,14.04351 0.47046,0.0118 4.52046,-1.08576 9,-2.43895 11.44351,-3.45688 19.2901,-4.52339 33.34385,-4.5321 24.99958,-0.0155 44.53646,5.94309 91.80076,27.99841 27.8405,12.99143 53.63895,20.24296 81.5,22.90834 11.9798,1.14608 13.30248,1.14976 24.5,0.0683 z m 74.29367,-13.59384 c 47.42582,-17.645 84.67967,-53.03148 102.09177,-96.97439 8.14838,-20.56408 12.10277,-41.77379 12.10277,-64.91433 0,-56.47668 -23.92976,-102.87355 -67.61837,-131.10372 -22.69188,-14.66276 -45.62212,-22.69963 -91.34486,-32.01566 -23.21371,-4.7298 -44.56647,-11.10118 -55.20953,-16.47378 l -6.06112,-3.05964 13.12093,25.52342 c 19.10958,37.17285 16.3379,33.48183 32.51326,43.29761 7.63869,4.63543 16.46434,10.4101 19.61257,12.83261 8.59424,6.61311 18.28903,17.60885 22.23726,25.22128 6.22411,12.00046 7.26664,16.37676 7.21286,30.27788 -0.0419,10.82151 -0.40967,13.58476 -2.73909,20.57841 -5.61818,16.86757 -19.02845,32.12558 -35.11176,39.94965 -13.19737,6.42015 -26.01008,9.47996 -42.60036,10.17341 -15.32626,0.64062 -23.4551,-0.21991 -49,-5.18723 -39.92983,-7.76453 -64.81404,-8.39626 -92.90817,-2.35864 -11.60321,2.49361 -27.133,7.83281 -36.49291,12.54638 -11.53527,5.80907 -31.29094,19.71124 -24.01296,16.89805 12.09986,-4.67701 38.31591,-7.34341 55.74328,-5.66957 19.27022,1.85083 21.04452,2.5729 8.39619,3.41688 -19.86006,1.3252 -41.54247,8.44579 -58.27845,19.13888 -20.3778,13.01995 -35.44417,31.58095 -44.46328,54.77647 -2.99616,7.70558 -6.43782,20.61653 -5.694,21.36034 0.21335,0.21335 3.72295,-2.57074 7.7991,-6.18688 15.9246,-14.12739 34.27569,-24.51724 55.50906,-31.42763 21.5407,-7.0104 32.15783,-8.48311 60.90214,-8.44776 23.83931,0.0293 26.13748,0.20592 49.5,3.80385 38.815,5.97767 60.90155,5.99651 83.04392,0.0708 19.6121,-5.24855 34.291,-13.56283 47.42825,-26.86387 7.11047,-7.19912 7.59687,-7.53568 4.5,-3.11373 -8.32402,11.88566 -21.90262,23.45189 -35.69801,30.40751 -22.60428,11.39704 -54.03946,14.39162 -91.72082,8.73751 -9.32067,-1.39857 -17.09166,-2.39786 -17.26888,-2.22064 -0.36663,0.36662 28.60061,10.64005 48.53441,17.21306 21.35753,7.04247 29.80884,8.504 52.69998,9.11368 15.88498,0.42308 22.28644,0.18392 31,-1.15817 12.07702,-1.86013 30.70634,-7.63366 40.61403,-12.58694 17.57909,-8.78854 37.81809,-26.00896 49.28349,-41.93301 15.20368,-21.11605 24.29676,-47.18814 26.4131,-75.73281 l 0.72644,-9.79802 1.22205,9.06772 c 3.37101,25.01335 -0.60206,57.83329 -9.8059,81.00261 -13.73048,34.56449 -36.21602,60.74271 -69.20409,80.56912 -4.44796,2.6733 -7.77072,4.86055 -7.38391,4.86055 0.3868,0 5.07113,-1.62508 10.40961,-3.61128 z M 203.32022,709.31291 C 254.23436,682.54052 311.91383,659.55112 357.25,647.96086 l 12.75,-3.25956 8.4e-4,-11.60065 c 0.004,-58.80227 21.68349,-112.86188 51.66984,-128.84444 20.20483,-10.76906 40.70065,-7.47633 58.33539,9.37181 12.98853,12.40916 21.31155,26.85395 29.04753,50.41262 6.48274,19.74216 9.10463,36.00297 9.68936,60.09289 l 0.50083,20.63353 14.6281,3.73747 c 28.18666,7.20166 69.44557,22.03147 104.09583,37.41545 10.62955,4.7193 11.72588,5.00794 15,3.9492 9.56977,-3.09453 21.18381,-10.9544 27.25596,-18.44563 l 3.72368,-4.59392 -2.39468,-4.66481 c -3.83613,-7.47277 -6.6485,-10.6473 -17.2163,-19.43335 -15.41894,-12.81928 -65.45333,-49.0104 -74.17203,-53.65048 -1.2846,-0.68367 -2.16372,-1.41495 -1.9536,-1.62507 0.21012,-0.21012 13.85932,3.42633 30.33155,8.08102 16.47223,4.65468 30.32794,8.46306 30.79047,8.46306 0.46253,0 -1.05042,-3.4875 -3.36212,-7.75 -12.1438,-22.39179 -50.77454,-97.83442 -68.48729,-133.75 -42.77811,-86.73979 -73.30944,-153.32836 -120.74047,-263.33389 -6.2449,-14.48363 -11.66737,-26.40863 -12.04993,-26.5 -0.38256,-0.0914 -6.03053,12.20889 -12.55104,27.33389 -19.13575,44.38734 -38.72379,89.04523 -48.36783,110.27163 -7.85376,17.28603 -8.81279,19.98885 -7.62858,21.4995 0.74497,0.95033 12.82949,14.02369 26.85449,29.05192 34.40505,36.8661 36.99439,39.7755 33.98924,38.1905 C 435.62016,398.29145 423.025,391.53976 409,384.00977 365.89957,360.86927 361.89524,358.77068 361.54826,359.14124 361.3635,359.33856 354.9974,372.775 347.40138,389 331.83526,422.24902 276.39702,533.53216 257.97934,568.5 229.75349,622.08968 222.12916,636.26471 193.33104,688.6931 182.69897,708.0493 174,724.17975 174,724.53855 c 0,0.3588 2.5875,-0.81183 5.75,-2.6014 3.1625,-1.78956 13.7691,-7.47047 23.57022,-12.62424 z m 489.16921,-72.11235 c -0.009,-9.55846 -0.40884,-12.75936 -2.18605,-17.48395 -2.64732,-7.03775 -9.36293,-16.63779 -15.92836,-22.7698 C 669.24368,592.15423 654,581.44553 654,582.63335 c 0,0.38186 4.8375,9.71503 10.75,20.74037 5.9125,11.02534 10.88584,20.35914 11.05187,20.74177 0.16602,0.38264 -4.09264,-0.59065 -9.4637,-2.16286 -5.37106,-1.57221 -9.8701,-2.75403 -9.99787,-2.62627 -0.12776,0.12777 5.39785,4.68573 12.27913,10.12881 12.1298,9.59464 21.38057,18.61714 21.38057,20.85298 0,0.70508 0.44279,0.64926 1.25,-0.15759 0.85892,-0.85853 1.24669,-4.91012 1.23943,-12.95 z"
       id="path1" />
  </g>
</svg>
